<?xml version="1.0" standalone="no"?>
<!DOCTYPE svg PUBLIC "-//W3C//DTD SVG 20010904//EN"
 "http://www.w3.org/TR/2001/REC-SVG-20010904/DTD/svg10.dtd">
<svg version="1.0" xmlns="http://www.w3.org/2000/svg"
 width="260.000000pt" height="260.000000pt" viewBox="0 0 260.000000 260.000000"
 preserveAspectRatio="xMidYMid meet">
<metadata>
Created by potrace 1.11, written by Peter Selinger 2001-2013
</metadata>
<g transform="translate(0.000000,260.000000) scale(0.100000,-0.100000)"
fill="#000000" stroke="none">
<path d="M0 1300 l0 -1300 1300 0 1300 0 0 1300 0 1300 -1300 0 -1300 0 0
-1300z m2155 1026 c123 -61 211 -184 236 -328 9 -58 8 -76 -11 -150 -12 -46
-36 -114 -55 -153 -86 -178 -315 -415 -655 -676 -150 -116 -151 -114 -34 44
106 143 218 316 210 325 -3 2 -64 -48 -136 -112 -156 -138 -282 -234 -363
-277 l-59 -31 74 93 c137 173 268 360 312 448 20 37 14 36 -49 -14 -69 -55
-363 -245 -500 -323 -5 -3 13 19 40 49 42 47 340 419 384 480 12 17 11 19 -15
19 -43 0 -133 -30 -282 -94 -74 -32 -136 -56 -137 -54 -10 10 456 548 552 639
165 155 329 194 488 115z"/>
</g>
</svg>
